<mxfile host="app.diagrams.net" modified="2024-02-06T10:01:59.891Z" agent="Mozilla/5.0 (Windows NT 10.0; Win64; x64) AppleWebKit/537.36 (KHTML, like Gecko) Chrome/121.0.0.0 Safari/537.36" etag="KqCjAv9zIlJHwDOu8SNt" version="23.1.1" type="github">
  <diagram name="第 1 页" id="vVJrqXz9gkhbjth-ZRxl">
    <mxGraphModel dx="954" dy="639" grid="0" gridSize="10" guides="1" tooltips="1" connect="1" arrows="1" fold="1" page="1" pageScale="1" pageWidth="827" pageHeight="1169" background="#0F0F0F" math="0" shadow="0">
      <root>
        <mxCell id="0" />
        <mxCell id="1" parent="0" />
        <mxCell id="X_2a2CuoMz3cIkIntmHs-19" style="rounded=0;orthogonalLoop=1;jettySize=auto;html=1;exitX=0;exitY=1;exitDx=0;exitDy=0;entryX=0.5;entryY=0;entryDx=0;entryDy=0;strokeColor=#FFFFCC;" edge="1" parent="1" source="X_2a2CuoMz3cIkIntmHs-2" target="X_2a2CuoMz3cIkIntmHs-7">
          <mxGeometry relative="1" as="geometry" />
        </mxCell>
        <mxCell id="X_2a2CuoMz3cIkIntmHs-24" style="rounded=0;orthogonalLoop=1;jettySize=auto;html=1;exitX=0.302;exitY=1.058;exitDx=0;exitDy=0;strokeColor=#FFFFFF;exitPerimeter=0;entryX=0.5;entryY=0;entryDx=0;entryDy=0;" edge="1" parent="1" source="X_2a2CuoMz3cIkIntmHs-2" target="X_2a2CuoMz3cIkIntmHs-8">
          <mxGeometry relative="1" as="geometry" />
        </mxCell>
        <mxCell id="X_2a2CuoMz3cIkIntmHs-30" style="rounded=0;orthogonalLoop=1;jettySize=auto;html=1;exitX=0.701;exitY=1.008;exitDx=0;exitDy=0;entryX=0.5;entryY=0;entryDx=0;entryDy=0;strokeColor=#FFFFFF;exitPerimeter=0;" edge="1" parent="1" source="X_2a2CuoMz3cIkIntmHs-2" target="X_2a2CuoMz3cIkIntmHs-9">
          <mxGeometry relative="1" as="geometry" />
        </mxCell>
        <mxCell id="X_2a2CuoMz3cIkIntmHs-2" value="" style="rounded=0;whiteSpace=wrap;html=1;fillColor=#0F0F0F;strokeColor=#FFFFFF;" vertex="1" parent="1">
          <mxGeometry x="233" y="177" width="361" height="60" as="geometry" />
        </mxCell>
        <mxCell id="X_2a2CuoMz3cIkIntmHs-3" value="&lt;font color=&quot;#ffffff&quot;&gt;30&lt;/font&gt;" style="rounded=0;whiteSpace=wrap;html=1;fillColor=#0F0F0F;strokeColor=#FFFFFF;" vertex="1" parent="1">
          <mxGeometry x="260" y="188.5" width="47" height="37" as="geometry" />
        </mxCell>
        <mxCell id="X_2a2CuoMz3cIkIntmHs-5" value="&lt;font color=&quot;#ffffff&quot;&gt;50&lt;/font&gt;" style="rounded=0;whiteSpace=wrap;html=1;fillColor=#0F0F0F;strokeColor=#FFFFFF;" vertex="1" parent="1">
          <mxGeometry x="382" y="188.5" width="47" height="37" as="geometry" />
        </mxCell>
        <mxCell id="X_2a2CuoMz3cIkIntmHs-6" value="&lt;font color=&quot;#ffffff&quot;&gt;70&lt;/font&gt;" style="rounded=0;whiteSpace=wrap;html=1;fillColor=#0F0F0F;strokeColor=#FFFFFF;" vertex="1" parent="1">
          <mxGeometry x="504" y="188.5" width="47" height="37" as="geometry" />
        </mxCell>
        <mxCell id="X_2a2CuoMz3cIkIntmHs-7" value="" style="rounded=0;whiteSpace=wrap;html=1;fillColor=#0F0F0F;strokeColor=#FFFFFF;" vertex="1" parent="1">
          <mxGeometry x="27" y="365" width="216" height="60" as="geometry" />
        </mxCell>
        <mxCell id="X_2a2CuoMz3cIkIntmHs-8" value="" style="rounded=0;whiteSpace=wrap;html=1;fillColor=#0F0F0F;strokeColor=#FFFFFF;" vertex="1" parent="1">
          <mxGeometry x="297.5" y="365" width="216" height="60" as="geometry" />
        </mxCell>
        <mxCell id="X_2a2CuoMz3cIkIntmHs-9" value="" style="rounded=0;whiteSpace=wrap;html=1;fillColor=#0F0F0F;strokeColor=#FFFFFF;" vertex="1" parent="1">
          <mxGeometry x="574" y="365" width="216" height="60" as="geometry" />
        </mxCell>
        <mxCell id="X_2a2CuoMz3cIkIntmHs-10" value="&lt;font color=&quot;#ffffff&quot;&gt;10&lt;br&gt;李白&lt;br&gt;&lt;/font&gt;" style="rounded=0;whiteSpace=wrap;html=1;fillColor=#0F0F0F;strokeColor=#FFFFFF;" vertex="1" parent="1">
          <mxGeometry x="38.5" y="382" width="37" height="30" as="geometry" />
        </mxCell>
        <mxCell id="X_2a2CuoMz3cIkIntmHs-11" value="&lt;font color=&quot;#ffffff&quot;&gt;非叶子节点&lt;/font&gt;" style="text;html=1;align=center;verticalAlign=middle;resizable=0;points=[];autosize=1;strokeColor=none;fillColor=none;" vertex="1" parent="1">
          <mxGeometry x="162" y="148" width="78" height="26" as="geometry" />
        </mxCell>
        <mxCell id="X_2a2CuoMz3cIkIntmHs-12" value="&lt;font color=&quot;#ffffff&quot;&gt;叶子节点&lt;/font&gt;" style="text;html=1;align=center;verticalAlign=middle;resizable=0;points=[];autosize=1;strokeColor=none;fillColor=none;" vertex="1" parent="1">
          <mxGeometry x="24" y="311" width="66" height="26" as="geometry" />
        </mxCell>
        <mxCell id="X_2a2CuoMz3cIkIntmHs-16" value="&lt;font color=&quot;#ffffff&quot;&gt;11&lt;br&gt;张飞&lt;br&gt;&lt;/font&gt;" style="rounded=0;whiteSpace=wrap;html=1;fillColor=#0F0F0F;strokeColor=#FFFFFF;" vertex="1" parent="1">
          <mxGeometry x="88" y="382" width="37" height="30" as="geometry" />
        </mxCell>
        <mxCell id="X_2a2CuoMz3cIkIntmHs-17" value="&lt;font color=&quot;#ffffff&quot;&gt;20&lt;br&gt;关羽&lt;br&gt;&lt;/font&gt;" style="rounded=0;whiteSpace=wrap;html=1;fillColor=#0F0F0F;strokeColor=#FFFFFF;" vertex="1" parent="1">
          <mxGeometry x="137" y="382" width="37" height="30" as="geometry" />
        </mxCell>
        <mxCell id="X_2a2CuoMz3cIkIntmHs-18" value="&lt;font color=&quot;#ffffff&quot;&gt;28&lt;br&gt;马超&lt;br&gt;&lt;/font&gt;" style="rounded=0;whiteSpace=wrap;html=1;fillColor=#0F0F0F;strokeColor=#FFFFFF;" vertex="1" parent="1">
          <mxGeometry x="186" y="382" width="37" height="30" as="geometry" />
        </mxCell>
        <mxCell id="X_2a2CuoMz3cIkIntmHs-20" value="&lt;font color=&quot;#ffffff&quot;&gt;30&lt;br&gt;小乔&lt;br&gt;&lt;/font&gt;" style="rounded=0;whiteSpace=wrap;html=1;fillColor=#0F0F0F;strokeColor=#FFFFFF;" vertex="1" parent="1">
          <mxGeometry x="307" y="382" width="37" height="30" as="geometry" />
        </mxCell>
        <mxCell id="X_2a2CuoMz3cIkIntmHs-21" value="&lt;font color=&quot;#ffffff&quot;&gt;35&lt;br&gt;大乔&lt;br&gt;&lt;/font&gt;" style="rounded=0;whiteSpace=wrap;html=1;fillColor=#0F0F0F;strokeColor=#FFFFFF;" vertex="1" parent="1">
          <mxGeometry x="357" y="382" width="37" height="30" as="geometry" />
        </mxCell>
        <mxCell id="X_2a2CuoMz3cIkIntmHs-22" value="&lt;font color=&quot;#ffffff&quot;&gt;45&lt;br&gt;黄忠&lt;br&gt;&lt;/font&gt;" style="rounded=0;whiteSpace=wrap;html=1;fillColor=#0F0F0F;strokeColor=#FFFFFF;" vertex="1" parent="1">
          <mxGeometry x="409" y="382" width="37" height="30" as="geometry" />
        </mxCell>
        <mxCell id="X_2a2CuoMz3cIkIntmHs-23" value="&lt;font color=&quot;#ffffff&quot;&gt;48&lt;br&gt;小明&lt;br&gt;&lt;/font&gt;" style="rounded=0;whiteSpace=wrap;html=1;fillColor=#0F0F0F;strokeColor=#FFFFFF;" vertex="1" parent="1">
          <mxGeometry x="460" y="382" width="37" height="30" as="geometry" />
        </mxCell>
        <mxCell id="X_2a2CuoMz3cIkIntmHs-26" value="&lt;font color=&quot;#ffffff&quot;&gt;50&lt;br&gt;庄周&lt;br&gt;&lt;/font&gt;" style="rounded=0;whiteSpace=wrap;html=1;fillColor=#0F0F0F;strokeColor=#FFFFFF;" vertex="1" parent="1">
          <mxGeometry x="577" y="382" width="37" height="30" as="geometry" />
        </mxCell>
        <mxCell id="X_2a2CuoMz3cIkIntmHs-27" value="&lt;font color=&quot;#ffffff&quot;&gt;58&lt;br&gt;阿珂&lt;br&gt;&lt;/font&gt;" style="rounded=0;whiteSpace=wrap;html=1;fillColor=#0F0F0F;strokeColor=#FFFFFF;" vertex="1" parent="1">
          <mxGeometry x="630" y="382" width="37" height="30" as="geometry" />
        </mxCell>
        <mxCell id="X_2a2CuoMz3cIkIntmHs-28" value="&lt;font color=&quot;#ffffff&quot;&gt;65&lt;br&gt;刘备&lt;br&gt;&lt;/font&gt;" style="rounded=0;whiteSpace=wrap;html=1;fillColor=#0F0F0F;strokeColor=#FFFFFF;" vertex="1" parent="1">
          <mxGeometry x="682" y="382" width="37" height="30" as="geometry" />
        </mxCell>
        <mxCell id="X_2a2CuoMz3cIkIntmHs-29" value="&lt;font color=&quot;#ffffff&quot;&gt;68&lt;br&gt;嬴政&lt;br&gt;&lt;/font&gt;" style="rounded=0;whiteSpace=wrap;html=1;fillColor=#0F0F0F;strokeColor=#FFFFFF;" vertex="1" parent="1">
          <mxGeometry x="738" y="382" width="37" height="30" as="geometry" />
        </mxCell>
      </root>
    </mxGraphModel>
  </diagram>
</mxfile>
